<svg width="400" height="400" viewBox="0 0 400 400" fill="none" xmlns="http://www.w3.org/2000/svg">
  <rect width="400" height="400" fill="#F3F4F6"/>
  <path d="M200 120C177.909 120 160 137.909 160 160C160 182.091 177.909 200 200 200C222.091 200 240 182.091 240 160C240 137.909 222.091 120 200 120Z" fill="#D1D5DB"/>
  <path d="M200 220C155.817 220 120 255.817 120 300V320H280V300C280 255.817 244.183 220 200 220Z" fill="#D1D5DB"/>
  <path d="M184 260H216V280H184V260Z" fill="#9CA3AF"/>
  <path d="M144 260H176V280H144V260Z" fill="#9CA3AF"/>
  <path d="M224 260H256V280H224V260Z" fill="#9CA3AF"/>
</svg> 